<svg width="1024" height="1024" viewBox="0 0 1024 1024" fill="none" xmlns="http://www.w3.org/2000/svg">
  <defs>
    <linearGradient id="mark-bg" x1="160" y1="116" x2="850" y2="900" gradientUnits="userSpaceOnUse">
      <stop stop-color="#F8FBFF"/>
      <stop offset="0.52" stop-color="#EEF4FF"/>
      <stop offset="1" stop-color="#E9F8FF"/>
    </linearGradient>
    <linearGradient id="spark-main" x1="322" y1="254" x2="752" y2="782" gradientUnits="userSpaceOnUse">
      <stop stop-color="#7C3AED"/>
      <stop offset="0.5" stop-color="#2563EB"/>
      <stop offset="1" stop-color="#06B6D4"/>
    </linearGradient>
    <linearGradient id="spark-soft" x1="308" y1="244" x2="720" y2="724" gradientUnits="userSpaceOnUse">
      <stop stop-color="#A78BFA"/>
      <stop offset="0.55" stop-color="#60A5FA"/>
      <stop offset="1" stop-color="#2DD4BF"/>
    </linearGradient>
    <filter id="soft-shadow" x="144" y="128" width="736" height="752" filterUnits="userSpaceOnUse" color-interpolation-filters="sRGB">
      <feFlood flood-opacity="0" result="BackgroundImageFix"/>
      <feColorMatrix in="SourceAlpha" type="matrix" values="0 0 0 0 0 0 0 0 0 0 0 0 0 0 0 0 0 0 127 0" result="hardAlpha"/>
      <feOffset dy="22"/>
      <feGaussianBlur stdDeviation="34"/>
      <feColorMatrix type="matrix" values="0 0 0 0 0.145098 0 0 0 0 0.388235 0 0 0 0 0.921569 0 0 0 0.18 0"/>
      <feBlend mode="normal" in2="BackgroundImageFix" result="shadow"/>
      <feBlend mode="normal" in="SourceGraphic" in2="shadow" result="shape"/>
    </filter>
  </defs>

  <rect x="64" y="64" width="896" height="896" rx="252" fill="url(#mark-bg)"/>
  <rect x="88" y="88" width="848" height="848" rx="232" stroke="#D8E6FB" stroke-width="32"/>
  <circle cx="304" cy="250" r="120" fill="#FFFFFF" fill-opacity="0.72"/>
  <circle cx="760" cy="766" r="146" fill="#DDF7FF" fill-opacity="0.72"/>

  <g filter="url(#soft-shadow)">
    <path d="M512 176C544 328 624 424 784 512C624 600 544 696 512 848C480 696 400 600 240 512C400 424 480 328 512 176Z" fill="url(#spark-main)"/>
    <path d="M512 292C535 399 592 465 704 512C592 559 535 625 512 732C489 625 432 559 320 512C432 465 489 399 512 292Z" fill="#FFFFFF" fill-opacity="0.92"/>
    <path d="M512 344C530 423 574 472 656 512C574 552 530 601 512 680C494 601 450 552 368 512C450 472 494 423 512 344Z" fill="url(#spark-soft)"/>
  </g>

  <path d="M314 704H442" stroke="#93A4BC" stroke-width="34" stroke-linecap="round" stroke-opacity="0.54"/>
  <path d="M582 704H710" stroke="#93A4BC" stroke-width="34" stroke-linecap="round" stroke-opacity="0.54"/>
  <path d="M334 770H690" stroke="#93A4BC" stroke-width="30" stroke-linecap="round" stroke-opacity="0.4"/>
  <circle cx="748" cy="282" r="34" fill="#2563EB" fill-opacity="0.88"/>
  <circle cx="282" cy="746" r="24" fill="#06B6D4" fill-opacity="0.82"/>
</svg>
